<?xml version="1.0" encoding="utf-8"?>
<!-- Generator: Adobe Illustrator 19.0.0, SVG Export Plug-In . SVG Version: 6.00 Build 0)  -->
<svg version="1.1" id="Layer_1" xmlns="http://www.w3.org/2000/svg" xmlns:xlink="http://www.w3.org/1999/xlink" x="0px" y="0px"
	 viewBox="0 0 76 65" style="enable-background:new 0 0 76 65;" xml:space="preserve">
<style type="text/css">
	.st0{fill:#FFC907;}
	.st1{fill:#FEDC00;}
	.st2{fill:#FFFFFF;}
	.st3{fill:#00AAC8;}
	.st4{fill:#06B4D2;}
</style>
<g id="XMLID_2_">
	<g id="XMLID_6_">
		<circle id="XMLID_67_" class="st0" cx="20.5" cy="28.1" r="13.2"/>
		<g id="XMLID_42_">
			<g id="XMLID_65_">
				<path id="XMLID_66_" class="st0" d="M31.7,37.5c0.7-0.6,2-2.8,2.5-4.4c1.4,1.2,3,3.2,4.1,5.3C36,38.5,33.4,38,31.7,37.5z"/>
			</g>
			<g id="XMLID_63_">
				<path id="XMLID_64_" class="st0" d="M25.5,41.8c1-0.4,0.9-0.3,2.3-1.1c1.2-0.8,0.3-0.1,2.1-1.5c1,3.4,0.9,6.7,0.9,6.7
					S27.9,44.4,25.5,41.8z"/>
			</g>
			<g id="XMLID_61_">
				<path id="XMLID_62_" class="st0" d="M18,42.5c3.2,0.4,3.4,0.1,4.3,0.1c0.5-0.1,0.8-0.1,0.8-0.1c-0.5,2.2-1.5,4.6-2.5,6.2
					C19.3,46.7,18.4,44.5,18,42.5z"/>
			</g>
			<g id="XMLID_59_">
				<path id="XMLID_60_" class="st0" d="M11.1,39.2c0.6,0.7,2.8,2,4.4,2.5c-1.3,1.4-3.3,3-5.3,4.1C10.1,43.5,10.6,41,11.1,39.2z"/>
			</g>
			<g id="XMLID_57_">
				<path id="XMLID_58_" class="st0" d="M6.8,33c0.4,1,0.3,0.9,1.1,2.3c0.8,1.2,0.1,0.3,1.5,2.1c-3.4,1-6.7,0.9-6.7,0.9
					S4.2,35.4,6.8,33z"/>
			</g>
			<g id="XMLID_55_">
				<path id="XMLID_56_" class="st0" d="M6.1,25.5c-0.2,1.9-0.2,1.2-0.2,2.5c0,0.6,0.1,1.3,0.1,1.7c0.1,0.5,0.1,0.8,0.1,0.8
					c-2.2-0.5-4.6-1.5-6.2-2.5C1.8,26.9,4.1,26,6.1,25.5z"/>
			</g>
			<g id="XMLID_53_">
				<path id="XMLID_54_" class="st0" d="M9.3,18.7c0,0-0.2,0.2-0.5,0.6c-0.8,1.1-1.6,2.3-2,3.8c-1.4-1.3-3-3.3-4.1-5.3
					C5,17.7,7.6,18.1,9.3,18.7z"/>
			</g>
			<g id="XMLID_51_">
				<path id="XMLID_52_" class="st0" d="M15.5,14.4c-2.4,0.9-3.3,1.7-4.4,2.5c-1-3.4-0.9-6.7-0.9-6.7S13.1,11.8,15.5,14.4z"/>
			</g>
			<g id="XMLID_49_">
				<path id="XMLID_50_" class="st0" d="M23.1,13.7c-3.2-0.4-3.4-0.1-4.3-0.1c-0.5,0.1-0.8,0.1-0.8,0.1c0.5-2.1,1.5-4.5,2.5-6.2
					C21.6,9.2,22.5,11.4,23.1,13.7z"/>
			</g>
			<g id="XMLID_47_">
				<path id="XMLID_48_" class="st0" d="M29.9,16.9c-0.6-0.6-2.8-2-4.4-2.5c1.2-1.4,3.2-3,5.3-4.1C30.9,12.6,30.5,15.2,29.9,16.9z"
					/>
			</g>
			<g id="XMLID_45_">
				<path id="XMLID_46_" class="st0" d="M34.2,23.1c-0.4-1-0.3-0.9-1.1-2.3c-0.8-1.2-0.1-0.3-1.5-2.1c3.4-1,6.7-0.9,6.7-0.9
					S36.8,20.7,34.2,23.1z"/>
			</g>
			<g id="XMLID_43_">
				<path id="XMLID_44_" class="st0" d="M34.9,30.6c0.2-1.9,0.2-1.1,0.2-2.5c0-0.6-0.1-1.3-0.1-1.7c-0.1-0.5-0.1-0.8-0.1-0.8
					c2.2,0.5,4.6,1.5,6.2,2.5C39.4,29.2,37.1,30.1,34.9,30.6z"/>
			</g>
		</g>
		<path id="XMLID_41_" class="st0" d="M33.7,28.1c0,7.3-5.9,13.2-13.2,13.2c0,0,0,0,0,0c-7.3,0-13.2-5.9-13.2-13.2
			c0-7.3,5.9-13.2,13.2-13.2c0,0,0,0,0,0C27.8,14.9,33.7,20.8,33.7,28.1z"/>
		<g id="XMLID_16_">
			<g id="XMLID_39_">
				<path id="XMLID_40_" class="st0" d="M38.3,38.4c-2.4,0.1-4.9-0.4-6.7-0.9c0.7-0.6,2-2.8,2.5-4.4C35.6,34.3,37.2,36.3,38.3,38.4z
					"/>
			</g>
			<g id="XMLID_37_">
				<path id="XMLID_38_" class="st0" d="M30.8,45.9c0,0-2.9-1.5-5.3-4.1c1-0.4,0.9-0.3,2.3-1.1c1.2-0.8,0.3-0.1,2.1-1.5
					C30.9,42.7,30.8,45.9,30.8,45.9z"/>
			</g>
			<g id="XMLID_35_">
				<path id="XMLID_36_" class="st0" d="M23,42.4c-0.5,2.2-1.5,4.6-2.5,6.2c0,0,0,0,0,0c-1.2-2-2.1-4.2-2.5-6.2
					c1.2,0.1,2,0.2,2.5,0.2c0.9,0,1.2-0.1,1.8-0.1C22.7,42.5,23,42.4,23,42.4z"/>
			</g>
			<g id="XMLID_33_">
				<path id="XMLID_34_" class="st0" d="M11.1,39.2c0.6,0.7,2.8,2,4.4,2.5c-1.3,1.4-3.3,3-5.3,4.1C10.1,43.5,10.6,41,11.1,39.2z"/>
			</g>
			<g id="XMLID_31_">
				<path id="XMLID_32_" class="st0" d="M6.8,33c0.4,1,0.3,0.9,1.1,2.3c0.8,1.2,0.1,0.3,1.5,2.1c-3.4,1-6.7,0.9-6.7,0.9
					S4.2,35.4,6.8,33z"/>
			</g>
			<g id="XMLID_29_">
				<path id="XMLID_30_" class="st0" d="M6.1,25.5c-0.2,1.9-0.2,1.2-0.2,2.5c0,0.6,0.1,1.3,0.1,1.7c0.1,0.5,0.1,0.8,0.1,0.8
					c-2.2-0.5-4.6-1.5-6.2-2.5C1.8,26.9,4.1,26,6.1,25.5z"/>
			</g>
			<g id="XMLID_27_">
				<path id="XMLID_28_" class="st0" d="M9.3,18.7c0,0-0.2,0.2-0.5,0.6c-0.8,1.1-1.6,2.3-2,3.8c-1.4-1.3-3-3.3-4.1-5.3
					C5,17.7,7.6,18.1,9.3,18.7z"/>
			</g>
			<g id="XMLID_25_">
				<path id="XMLID_26_" class="st0" d="M15.5,14.4c-2.4,0.9-3.3,1.7-4.4,2.5c-1-3.4-0.9-6.7-0.9-6.7S13.1,11.8,15.5,14.4z"/>
			</g>
			<g id="XMLID_23_">
				<path id="XMLID_24_" class="st0" d="M23.1,13.7c-1.2-0.2-2-0.2-2.6-0.2c-0.9,0-1.2,0.1-1.7,0.1c-0.5,0.1-0.8,0.1-0.8,0.1
					c0.5-2.1,1.5-4.5,2.5-6.2c0,0,0,0,0-0.1C21.6,9.2,22.5,11.4,23.1,13.7z"/>
			</g>
			<g id="XMLID_21_">
				<path id="XMLID_22_" class="st0" d="M29.9,16.9c-0.6-0.6-2.8-2-4.4-2.5c1.2-1.4,3.2-3,5.3-4.1C30.9,12.6,30.5,15.2,29.9,16.9z"
					/>
			</g>
			<g id="XMLID_19_">
				<path id="XMLID_20_" class="st0" d="M38.4,17.8c0,0-1.6,2.9-4.1,5.3c-0.4-1-0.3-0.9-1.1-2.3c-0.8-1.2-0.1-0.3-1.5-2.1
					C35.1,17.6,38.4,17.8,38.4,17.8z"/>
			</g>
			<g id="XMLID_17_">
				<path id="XMLID_18_" class="st0" d="M35.1,28.1c0-0.6-0.1-1.3-0.1-1.8c-0.1-0.5-0.1-0.8-0.1-0.8c2.2,0.5,4.6,1.5,6.2,2.5
					c-1.8,1.1-4,2-6.2,2.5C35.1,28.8,35.1,29.5,35.1,28.1z"/>
			</g>
		</g>
		<path id="XMLID_15_" class="st1" d="M23.1,13.7c-1.2-0.2-2-0.2-2.6-0.2V7.5c0,0,0,0,0-0.1C21.6,9.2,22.5,11.4,23.1,13.7z"/>
		<path id="XMLID_14_" class="st1" d="M22.2,42.6c0.5-0.1,0.8-0.1,0.8-0.1c-0.5,2.2-1.5,4.6-2.5,6.2v-6
			C21.4,42.7,21.7,42.6,22.2,42.6z"/>
		<path id="XMLID_13_" class="st1" d="M20.5,41.3C20.5,41.3,20.5,41.3,20.5,41.3l0-26.4c0,0,0,0,0,0c7.3,0,13.2,5.9,13.2,13.2
			C33.7,35.4,27.8,41.3,20.5,41.3z"/>
		<path id="XMLID_12_" class="st1" d="M29.9,39.3c1,3.4,0.9,6.7,0.9,6.7s-2.9-1.5-5.3-4.1c1-0.4,0.9-0.3,2.3-1.1
			C29,39.9,28.1,40.6,29.9,39.3z"/>
		<path id="XMLID_11_" class="st1" d="M29.9,16.9c-0.6-0.6-2.8-2-4.4-2.5c1.2-1.4,3.2-3,5.3-4.1C30.9,12.6,30.5,15.2,29.9,16.9z"/>
		<path id="XMLID_10_" class="st1" d="M38.3,38.4c-2.4,0.1-4.9-0.4-6.7-0.9c0.7-0.6,2-2.8,2.5-4.4C35.6,34.3,37.2,36.3,38.3,38.4z"
			/>
		<path id="XMLID_9_" class="st1" d="M33.2,20.8c-0.8-1.2-0.1-0.3-1.5-2.1c3.4-1,6.7-0.9,6.7-0.9s-1.6,2.9-4.1,5.3
			C33.8,22.1,33.9,22.2,33.2,20.8z"/>
		<path id="XMLID_8_" class="st1" d="M35.1,28.1c0-0.6-0.1-1.3-0.1-1.8c-0.1-0.5-0.1-0.8-0.1-0.8c2.2,0.5,4.6,1.5,6.2,2.5
			c-1.8,1.1-4,2-6.2,2.5C35.1,28.8,35.1,29.5,35.1,28.1z"/>
		<path id="XMLID_7_" class="st2" d="M32.3,28.1h-1.5c0-5.7-4.6-10.3-10.3-10.3l0-1.5h0C27,16.3,32.3,21.6,32.3,28.1z"/>
	</g>
	<path id="XMLID_5_" class="st3" d="M76,46.6c0,3.2-1.3,6.1-3.4,8.1c-2.1,2.1-5,3.4-8.2,3.4H16.3c-5.5,0-10-4.5-10-10
		c0-5.5,4.5-10,10-10c1.8,0,3.4,0.5,4.9,1.3c-0.2-0.7-0.4-1.4-0.4-2.1c0-3.4,2.7-6.1,6.1-6.1c2,0,3.8,1,4.9,2.4
		C32.3,26,38.4,19.9,46,19.4c0.3,0,0.7,0,1,0c8.5,0,15.4,6.9,15.4,15.4c0,0.2,0,0.4,0,0.6c0.7-0.1,1.4-0.2,2.1-0.2
		C70.8,35.1,76,40.3,76,46.6z"/>
	<path id="XMLID_4_" class="st4" d="M76,46.6c0,3.2-1.3,6.1-3.4,8.1c-2.1,2.1-5,3.4-8.2,3.4H46V19.4c0.3,0,0.7,0,1,0
		c8.5,0,15.4,6.9,15.4,15.4c0,0.2,0,0.4,0,0.6c0.7-0.1,1.4-0.2,2.1-0.2C70.8,35.1,76,40.3,76,46.6z"/>
	<path id="XMLID_3_" class="st2" d="M58.7,34.8h-1.5c0-5.6-4.6-10.2-10.2-10.2c-0.3,0-0.6,0-0.9,0l-0.1-1.5c0.4,0,0.7,0,1.1,0
		C53.5,23.1,58.7,28.3,58.7,34.8z"/>
</g>
</svg>
