<?xml version="1.0" encoding="utf-8"?>
<!-- Generator: Adobe Illustrator 19.0.0, SVG Export Plug-In . SVG Version: 6.00 Build 0)  -->
<svg version="1.1" id="Layer_1" xmlns="http://www.w3.org/2000/svg" xmlns:xlink="http://www.w3.org/1999/xlink" x="0px" y="0px"
	 viewBox="0 0 76 65" style="enable-background:new 0 0 76 65;" xml:space="preserve">
<style type="text/css">
	.st0{fill:#00AAC8;}
	.st1{fill:#06B4D2;}
	.st2{fill:#FFFFFF;}
	.st3{fill:#FEDC00;}
	.st4{fill:#FDEE1C;}
	.st5{fill:#9ADAEE;}
	.st6{fill:#A5DEF2;}
</style>
<g id="XMLID_2_">
	<g id="XMLID_13_">
		<path id="XMLID_16_" class="st0" d="M73,27.3c0,3.2-1.3,6.1-3.4,8.1c-2.1,2.1-5,3.4-8.2,3.4H13.3c-5.5,0-10-4.5-10-10
			c0-5.5,4.5-10,10-10c1.8,0,3.4,0.5,4.9,1.3c-0.2-0.7-0.4-1.4-0.4-2.1c0-3.4,2.7-6.1,6.1-6.1c2,0,3.8,1,4.9,2.4
			C29.3,6.7,35.4,0.6,43,0c0.3,0,0.7,0,1.1,0c8.5,0,15.4,6.9,15.4,15.4c0,0.2,0,0.4,0,0.6c0.7-0.1,1.4-0.2,2.1-0.2
			C67.8,15.7,73,20.9,73,27.3z"/>
		<path id="XMLID_15_" class="st1" d="M73,27.3c0,3.2-1.3,6.1-3.4,8.1c-2.1,2.1-5,3.4-8.2,3.4H43V0c0.3,0,0.7,0,1.1,0
			c8.5,0,15.4,6.9,15.4,15.4c0,0.2,0,0.4,0,0.6c0.7-0.1,1.4-0.2,2.1-0.2C67.8,15.7,73,20.9,73,27.3z"/>
		<path id="XMLID_14_" class="st2" d="M55.7,15.4h-1.5c0-5.6-4.6-10.2-10.2-10.2c-0.3,0-0.6,0-0.9,0l-0.1-1.5c0.4,0,0.7,0,1.1,0
			C50.5,3.7,55.7,9,55.7,15.4z"/>
	</g>
	<path id="XMLID_12_" class="st3" d="M59,34.1l3.3-9.7l-7.6,11.9c2.6,0,3,0,5.6,0L56.9,46c7.3-11.4,5.9-9.3,7.6-11.9
		C61.9,34.1,61.6,34.1,59,34.1z"/>
	<g id="XMLID_9_">
		<path id="XMLID_11_" class="st3" d="M42.7,42.8l5.9-17.3L35.1,46.8c4.6,0,5.3,0,10,0l-5.9,17.3c13-20.3,10.6-16.6,13.5-21.3
			C48,42.8,47.4,42.8,42.7,42.8z"/>
		<polygon id="XMLID_10_" class="st4" points="48.6,25.6 39.2,44.8 48.6,44.8 39.2,64.1 52.7,42.8 42.7,42.8 		"/>
	</g>
	<g id="XMLID_6_">
		<path id="XMLID_8_" class="st5" d="M30.6,49.6c0,2-1.6,3.6-3.6,3.6c-2,0-3.6-1.6-3.6-3.6c0-2,3.6-7,3.6-7S30.6,47.6,30.6,49.6z"/>
		<path id="XMLID_7_" class="st6" d="M30.6,49.6c0,2-1.6,3.6-3.6,3.6V42.6C27.1,42.6,30.6,47.6,30.6,49.6z"/>
	</g>
	<g id="XMLID_3_">
		<path id="XMLID_5_" class="st5" d="M18.4,49.6c0,2-1.6,3.6-3.6,3.6c-2,0-3.6-1.6-3.6-3.6c0-2,3.6-7,3.6-7S18.4,47.6,18.4,49.6z"/>
		<path id="XMLID_4_" class="st6" d="M18.4,49.6c0,2-1.6,3.6-3.6,3.6V42.6C14.8,42.6,18.4,47.6,18.4,49.6z"/>
	</g>
</g>
</svg>
