<?xml version="1.0" encoding="utf-8"?>
<!-- Generator: Adobe Illustrator 19.0.0, SVG Export Plug-In . SVG Version: 6.00 Build 0)  -->
<svg version="1.1" id="Layer_1" xmlns="http://www.w3.org/2000/svg" xmlns:xlink="http://www.w3.org/1999/xlink" x="0px" y="0px"
	 viewBox="0 0 76 65" style="enable-background:new 0 0 76 65;" xml:space="preserve">
<style type="text/css">
	.st0{fill:#FFC907;}
	.st1{fill:#FEDC00;}
	.st2{fill:#FFFFFF;}
</style>
<g id="XMLID_2_">
	<circle id="XMLID_65_" class="st0" cx="38" cy="32.5" r="19.2"/>
	<g id="XMLID_40_">
		<g id="XMLID_63_">
			<path id="XMLID_64_" class="st0" d="M54.3,46.2c1-0.9,3-4.1,3.7-6.4c2,1.8,4.4,4.7,6,7.7C60.5,47.6,56.8,47,54.3,46.2z"/>
		</g>
		<g id="XMLID_61_">
			<path id="XMLID_62_" class="st0" d="M45.2,52.5c1.5-0.6,1.3-0.5,3.4-1.6c1.8-1.2,0.5-0.2,3-2.1c1.5,5,1.3,9.7,1.3,9.7
				S48.7,56.3,45.2,52.5z"/>
		</g>
		<g id="XMLID_59_">
			<path id="XMLID_60_" class="st0" d="M34.3,53.4c4.7,0.6,4.9,0.2,6.2,0.2c0.7-0.1,1.1-0.2,1.1-0.2c-0.7,3.2-2.3,6.7-3.7,9.1
				C36.2,59.6,35,56.4,34.3,53.4z"/>
		</g>
		<g id="XMLID_57_">
			<path id="XMLID_58_" class="st0" d="M24.3,48.8c0.9,1,4.1,3,6.4,3.7c-1.9,2.1-4.8,4.4-7.7,6C22.9,55,23.5,51.3,24.3,48.8z"/>
		</g>
		<g id="XMLID_55_">
			<path id="XMLID_56_" class="st0" d="M18,39.7c0.6,1.5,0.5,1.3,1.6,3.4c1.2,1.8,0.2,0.5,2.1,3c-5,1.5-9.7,1.3-9.7,1.3
				S14.2,43.2,18,39.7z"/>
		</g>
		<g id="XMLID_53_">
			<path id="XMLID_54_" class="st0" d="M17.1,28.8c-0.3,2.7-0.3,1.7-0.3,3.7c-0.1,0.9,0.1,1.8,0.1,2.5c0.1,0.7,0.2,1.1,0.2,1.1
				c-3.2-0.7-6.7-2.2-9.1-3.7C10.8,30.8,14.1,29.5,17.1,28.8z"/>
		</g>
		<g id="XMLID_51_">
			<path id="XMLID_52_" class="st0" d="M21.7,18.8c0,0-0.3,0.3-0.7,0.9c-1.1,1.6-2.3,3.4-3,5.5c-2.1-1.9-4.4-4.8-6-7.7
				C15.5,17.4,19.2,18,21.7,18.8z"/>
		</g>
		<g id="XMLID_49_">
			<path id="XMLID_50_" class="st0" d="M30.8,12.5c-3.4,1.3-4.8,2.5-6.4,3.7c-1.5-5-1.3-9.7-1.3-9.7S27.3,8.8,30.8,12.5z"/>
		</g>
		<g id="XMLID_47_">
			<path id="XMLID_48_" class="st0" d="M41.7,11.6c-4.7-0.6-4.9-0.2-6.2-0.2c-0.7,0.1-1.1,0.2-1.1,0.2C35,8.5,36.5,5,38,2.5
				C39.6,5.1,41,8.3,41.7,11.6z"/>
		</g>
		<g id="XMLID_45_">
			<path id="XMLID_46_" class="st0" d="M51.7,16.2c-0.9-0.9-4.1-2.9-6.4-3.7c1.8-2,4.7-4.4,7.7-6C53.1,10,52.5,13.8,51.7,16.2z"/>
		</g>
		<g id="XMLID_43_">
			<path id="XMLID_44_" class="st0" d="M58,25.3c-0.6-1.5-0.5-1.3-1.6-3.4c-1.2-1.8-0.2-0.5-2.1-3c5-1.5,9.7-1.3,9.7-1.3
				S61.8,21.8,58,25.3z"/>
		</g>
		<g id="XMLID_41_">
			<path id="XMLID_42_" class="st0" d="M58.9,36.2c0.3-2.7,0.3-1.7,0.3-3.7c0.1-0.9-0.1-1.8-0.1-2.5c-0.1-0.7-0.2-1.1-0.2-1.1
				c3.2,0.7,6.7,2.3,9.1,3.7C65.4,34.1,62.2,35.5,58.9,36.2z"/>
		</g>
	</g>
	<path id="XMLID_39_" class="st0" d="M57.2,32.5c0,10.6-8.6,19.2-19.2,19.2c0,0,0,0,0,0c-10.6,0-19.2-8.6-19.2-19.2
		c0-10.6,8.6-19.2,19.2-19.2c0,0,0,0,0,0C48.6,13.3,57.2,21.9,57.2,32.5z"/>
	<g id="XMLID_14_">
		<g id="XMLID_37_">
			<path id="XMLID_38_" class="st0" d="M64,47.5c-3.4,0.1-7.2-0.5-9.7-1.4c0.9-0.9,2.9-4.1,3.7-6.4C59.9,41.6,62.3,44.5,64,47.5z"/>
		</g>
		<g id="XMLID_35_">
			<path id="XMLID_36_" class="st0" d="M53,58.5c0,0-4.3-2.2-7.7-6c1.5-0.6,1.3-0.5,3.4-1.6c1.8-1.2,0.5-0.2,3.1-2.1
				C53.2,53.8,53,58.5,53,58.5z"/>
		</g>
		<g id="XMLID_33_">
			<path id="XMLID_34_" class="st0" d="M41.7,53.4c-0.7,3.2-2.2,6.7-3.7,9.1c0,0,0,0,0,0c-1.7-2.8-3-6.1-3.7-9.1
				c1.8,0.2,2.9,0.3,3.7,0.3c1.3,0,1.7-0.1,2.6-0.1C41.2,53.5,41.7,53.4,41.7,53.4z"/>
		</g>
		<g id="XMLID_31_">
			<path id="XMLID_32_" class="st0" d="M24.3,48.8c0.9,1,4.1,3,6.4,3.7c-1.9,2.1-4.8,4.4-7.7,6C22.9,55,23.5,51.3,24.3,48.8z"/>
		</g>
		<g id="XMLID_29_">
			<path id="XMLID_30_" class="st0" d="M18,39.7c0.6,1.5,0.5,1.3,1.6,3.4c1.2,1.8,0.2,0.5,2.1,3c-5,1.5-9.7,1.3-9.7,1.3
				S14.2,43.2,18,39.7z"/>
		</g>
		<g id="XMLID_27_">
			<path id="XMLID_28_" class="st0" d="M17.1,28.8c-0.3,2.7-0.3,1.7-0.3,3.7c-0.1,0.9,0.1,1.8,0.1,2.5c0.1,0.7,0.2,1.1,0.2,1.1
				c-3.2-0.7-6.7-2.2-9.1-3.7C10.8,30.8,14.1,29.5,17.1,28.8z"/>
		</g>
		<g id="XMLID_25_">
			<path id="XMLID_26_" class="st0" d="M21.7,18.8c0,0-0.3,0.3-0.7,0.9c-1.1,1.6-2.3,3.4-3,5.5c-2.1-1.9-4.4-4.8-6-7.7
				C15.5,17.4,19.2,18,21.7,18.8z"/>
		</g>
		<g id="XMLID_23_">
			<path id="XMLID_24_" class="st0" d="M30.8,12.5c-3.4,1.3-4.8,2.5-6.4,3.7c-1.5-5-1.3-9.7-1.3-9.7S27.3,8.8,30.8,12.5z"/>
		</g>
		<g id="XMLID_21_">
			<path id="XMLID_22_" class="st0" d="M41.7,11.6c-1.8-0.2-2.9-0.3-3.7-0.3c-1.3,0-1.7,0.1-2.5,0.1c-0.7,0.1-1.1,0.2-1.1,0.2
				c0.7-3.1,2.1-6.5,3.6-9c0,0,0-0.1,0.1-0.1C39.6,5.1,41,8.3,41.7,11.6z"/>
		</g>
		<g id="XMLID_19_">
			<path id="XMLID_20_" class="st0" d="M51.7,16.2c-0.9-0.9-4.1-2.9-6.4-3.7c1.8-2,4.7-4.4,7.7-6C53.1,10,52.5,13.8,51.7,16.2z"/>
		</g>
		<g id="XMLID_17_">
			<path id="XMLID_18_" class="st0" d="M64,17.5c0,0-2.3,4.3-6,7.7c-0.6-1.5-0.5-1.3-1.6-3.4c-1.2-1.8-0.2-0.5-2.1-3
				C59.3,17.3,64,17.5,64,17.5z"/>
		</g>
		<g id="XMLID_15_">
			<path id="XMLID_16_" class="st0" d="M59.2,32.5c0.1-0.9-0.1-1.8-0.1-2.6c-0.1-0.7-0.2-1.1-0.2-1.1c3.2,0.7,6.7,2.3,9.1,3.7
				c-2.6,1.6-5.8,2.9-9.1,3.7C59.3,33.5,59.2,34.5,59.2,32.5z"/>
		</g>
	</g>
	<path id="XMLID_13_" class="st1" d="M41.7,11.6c-1.8-0.2-2.9-0.3-3.7-0.3V2.6c0,0,0-0.1,0.1-0.1C39.6,5.1,41,8.3,41.7,11.6z"/>
	<path id="XMLID_12_" class="st1" d="M40.5,53.6c0.7-0.1,1.1-0.2,1.1-0.2c-0.7,3.2-2.2,6.7-3.7,9.1v-8.7
		C39.3,53.8,39.7,53.6,40.5,53.6z"/>
	<path id="XMLID_11_" class="st1" d="M38,51.7C38,51.7,38,51.7,38,51.7l0-38.5c0,0,0,0,0,0c10.6,0,19.2,8.6,19.2,19.2
		C57.2,43.1,48.6,51.7,38,51.7z"/>
	<path id="XMLID_10_" class="st1" d="M51.6,48.8c1.5,5,1.3,9.7,1.3,9.7s-4.3-2.2-7.7-6c1.5-0.6,1.3-0.5,3.4-1.6
		C50.4,49.8,49.1,50.8,51.6,48.8z"/>
	<path id="XMLID_9_" class="st1" d="M51.7,16.2c-0.9-0.9-4.1-2.9-6.4-3.7c1.8-2,4.7-4.4,7.7-6C53.1,10,52.5,13.8,51.7,16.2z"/>
	<path id="XMLID_8_" class="st1" d="M64,47.5c-3.4,0.1-7.2-0.5-9.7-1.4c0.9-0.9,2.9-4.1,3.7-6.4C59.9,41.6,62.3,44.5,64,47.5z"/>
	<path id="XMLID_7_" class="st1" d="M56.4,21.9c-1.2-1.8-0.2-0.5-2.1-3c5-1.5,9.7-1.3,9.7-1.3s-2.3,4.3-6,7.7
		C57.4,23.7,57.5,24,56.4,21.9z"/>
	<path id="XMLID_6_" class="st1" d="M59.2,32.5c0.1-0.9-0.1-1.8-0.1-2.6c-0.1-0.7-0.2-1.1-0.2-1.1c3.2,0.7,6.7,2.3,9.1,3.7
		c-2.6,1.6-5.8,2.9-9.1,3.7C59.3,33.5,59.2,34.5,59.2,32.5z"/>
	<path id="XMLID_5_" class="st2" d="M55,32.5h-2c0-8.3-6.7-15-15-15l0-2h0C47.4,15.5,55,23.1,55,32.5z"/>
	<path id="XMLID_4_" class="st0" d="M49.1,32.5c0,6.1-5,11.1-11.1,11.1c0,0,0,0,0,0h0c-6.1,0-11.1-5-11.1-11.1
		c0-6.1,5-11.1,11.1-11.1h0c0,0,0,0,0,0C44.1,21.4,49.1,26.4,49.1,32.5z"/>
	<path id="XMLID_3_" class="st1" d="M38,21.4v22.2c-6.1,0-11.1-5-11.1-11.1C26.9,26.4,31.8,21.4,38,21.4z"/>
</g>
</svg>
