<?xml version="1.0" encoding="utf-8"?>
<!-- Generator: Adobe Illustrator 19.0.0, SVG Export Plug-In . SVG Version: 6.00 Build 0)  -->
<svg version="1.1" id="Layer_1" xmlns="http://www.w3.org/2000/svg" xmlns:xlink="http://www.w3.org/1999/xlink" x="0px" y="0px"
	 viewBox="-25 -12 76 65" style="enable-background:new -25 -12 76 65;" xml:space="preserve">
<style type="text/css">
	.st0{fill:#E6C705;}
</style>
<path id="XMLID_66_" class="st0" d="M12.6,35.6c8,0,14.5-6.5,14.5-14.5c0-8-6.5-14.5-14.5-14.5c-8,0-14.5,6.5-14.5,14.5
	C-1.9,29.1,4.6,35.6,12.6,35.6z"/>
<path id="XMLID_34_" class="st0" d="M11.1,0c0,0.9,0.7,1.5,1.5,1.5c0.9,0,1.5-0.7,1.5-1.5v-6.5c0-0.9-0.7-1.5-1.5-1.5
	c-0.9,0-1.5,0.7-1.5,1.5V0z"/>
<path id="XMLID_33_" class="st0" d="M11.1,42.2v6.5c0,0.9,0.7,1.5,1.5,1.5c0.9,0,1.5-0.7,1.5-1.5v-6.5c0-0.9-0.7-1.5-1.5-1.5
	C11.7,40.6,11.1,41.3,11.1,42.2z"/>
<path id="XMLID_32_" class="st0" d="M2.1,4.4c0.3,0,0.5-0.1,0.8-0.2c0.7-0.4,1-1.4,0.6-2.1L0.1-3.6c-0.4-0.7-1.4-1-2.1-0.6
	C-2.7-3.7-3-2.8-2.5-2l3.3,5.7C1,4.1,1.5,4.4,2.1,4.4z"/>
<path id="XMLID_31_" class="st0" d="M22.4,38c-0.7,0.4-1,1.4-0.6,2.1l3.3,5.7c0.3,0.5,0.8,0.8,1.3,0.8c0.3,0,0.5-0.1,0.8-0.2
	c0.7-0.4,1-1.4,0.6-2.1l-3.3-5.7C24,37.8,23.1,37.6,22.4,38z"/>
<path id="XMLID_30_" class="st0" d="M-12.6,6.5c-0.4,0.7-0.2,1.7,0.6,2.1l5.7,3.3c0.2,0.1,0.5,0.2,0.8,0.2c0.5,0,1.1-0.3,1.3-0.8
	c0.4-0.7,0.2-1.7-0.6-2.1L-10.5,6C-11.3,5.5-12.2,5.8-12.6,6.5z"/>
<path id="XMLID_29_" class="st0" d="M37.3,33.6l-5.7-3.3c-0.7-0.4-1.7-0.2-2.1,0.6c-0.4,0.7-0.2,1.7,0.6,2.1l5.7,3.3
	c0.2,0.1,0.5,0.2,0.8,0.2c0.5,0,1.1-0.3,1.3-0.8C38.3,34.9,38,34,37.3,33.6z"/>
<path id="XMLID_28_" class="st0" d="M-6.9,21.1c0-0.9-0.7-1.5-1.5-1.5H-15c-0.9,0-1.5,0.7-1.5,1.5c0,0.9,0.7,1.5,1.5,1.5h6.5
	C-7.6,22.7-6.9,22-6.9,21.1z"/>
<path id="XMLID_27_" class="st0" d="M40.2,19.6h-6.5c-0.9,0-1.5,0.7-1.5,1.5c0,0.9,0.7,1.5,1.5,1.5h6.5c0.9,0,1.5-0.7,1.5-1.5
	C41.7,20.3,41,19.6,40.2,19.6z"/>
<path id="XMLID_26_" class="st0" d="M-6.4,30.3l-5.7,3.3c-0.7,0.4-1,1.4-0.6,2.1c0.3,0.5,0.8,0.8,1.3,0.8c0.3,0,0.5-0.1,0.8-0.2
	l5.7-3.3c0.7-0.4,1-1.4,0.6-2.1C-4.7,30.1-5.7,29.9-6.4,30.3z"/>
<path id="XMLID_25_" class="st0" d="M35.7,6l-5.7,3.3c-0.7,0.4-1,1.4-0.6,2.1c0.3,0.5,0.8,0.8,1.3,0.8c0.3,0,0.5-0.1,0.8-0.2
	l5.7-3.3c0.7-0.4,1-1.4,0.6-2.1C37.4,5.8,36.5,5.5,35.7,6z"/>
<path id="XMLID_24_" class="st0" d="M0.7,38.6l-3.3,5.7C-3,45-2.7,45.9-2,46.3c0.2,0.1,0.5,0.2,0.8,0.2c0.5,0,1.1-0.3,1.3-0.8
	l3.3-5.7c0.4-0.7,0.2-1.7-0.6-2.1C2.1,37.6,1.2,37.8,0.7,38.6z"/>
<path id="XMLID_23_" class="st0" d="M22.4,4.2c0.2,0.1,0.5,0.2,0.8,0.2c0.5,0,1.1-0.3,1.3-0.8L27.7-2c0.4-0.7,0.2-1.7-0.6-2.1
	c-0.7-0.4-1.7-0.2-2.1,0.6l-3.3,5.7C21.4,2.8,21.6,3.8,22.4,4.2z"/>
</svg>
