<?xml version="1.0" encoding="utf-8"?>
<!-- Generator: Adobe Illustrator 19.0.0, SVG Export Plug-In . SVG Version: 6.00 Build 0)  -->
<svg version="1.1" id="Layer_1" xmlns="http://www.w3.org/2000/svg" xmlns:xlink="http://www.w3.org/1999/xlink" x="0px" y="0px"
	 viewBox="-25 -12 76 65" style="enable-background:new -25 -12 76 65;" xml:space="preserve">
<style type="text/css">
	.st0{fill:#E6C705;}
</style>
<path id="XMLID_72_" class="st0" d="M13,19.8c-9,0-16.4,6.9-17.2,15.7h34.4C29.4,26.7,22,19.8,13,19.8z"/>
<path id="XMLID_22_" class="st0" d="M11.4,4.7v7.7c0,0.9,0.7,1.6,1.6,1.6c0.9,0,1.6-0.7,1.6-1.6V4.7c0-0.9-0.7-1.6-1.6-1.6
	C12.1,3.1,11.4,3.8,11.4,4.7z"/>
<path id="XMLID_21_" class="st0" d="M-4,7.7c-0.8,0.4-1,1.4-0.6,2.2l3.8,6.6c0.3,0.5,0.8,0.8,1.4,0.8c0.3,0,0.5-0.1,0.8-0.2
	c0.8-0.4,1-1.4,0.6-2.2l-3.8-6.6C-2.3,7.5-3.2,7.2-4,7.7z"/>
<path id="XMLID_20_" class="st0" d="M-7.6,23.3l-6.6-3.8c-0.8-0.4-1.7-0.2-2.2,0.6c-0.4,0.8-0.2,1.7,0.6,2.2l6.6,3.8
	c0.2,0.1,0.5,0.2,0.8,0.2c0.5,0,1.1-0.3,1.4-0.8C-6.6,24.8-6.9,23.8-7.6,23.3z"/>
<path id="XMLID_19_" class="st0" d="M-10.1,37.1c0-0.9-0.7-1.6-1.6-1.6h-7.7c-0.9,0-1.6,0.7-1.6,1.6c0,0.9,0.7,1.6,1.6,1.6h7.7
	C-10.9,38.7-10.1,38-10.1,37.1z"/>
<path id="XMLID_18_" class="st0" d="M45.4,35.5h-7.7c-0.9,0-1.6,0.7-1.6,1.6c0,0.9,0.7,1.6,1.6,1.6h7.7c0.9,0,1.6-0.7,1.6-1.6
	C47,36.2,46.3,35.5,45.4,35.5z"/>
<path id="XMLID_17_" class="st0" d="M35.2,26.1l6.6-3.8c0.8-0.4,1-1.4,0.6-2.2c-0.4-0.8-1.4-1-2.2-0.6l-6.6,3.8
	c-0.8,0.4-1,1.4-0.6,2.2c0.3,0.5,0.8,0.8,1.4,0.8C34.7,26.3,35,26.2,35.2,26.1z"/>
<path id="XMLID_16_" class="st0" d="M24.6,17c0.2,0.1,0.5,0.2,0.8,0.2c0.5,0,1.1-0.3,1.4-0.8l3.8-6.6C31,9.1,30.7,8.1,30,7.7
	c-0.8-0.4-1.7-0.2-2.2,0.6L24,14.9C23.6,15.6,23.8,16.6,24.6,17z"/>
</svg>
