<?xml version="1.0" encoding="utf-8"?>
<!-- Generator: Adobe Illustrator 19.0.0, SVG Export Plug-In . SVG Version: 6.00 Build 0)  -->
<svg version="1.1" id="Layer_1" xmlns="http://www.w3.org/2000/svg" xmlns:xlink="http://www.w3.org/1999/xlink" x="0px" y="0px"
	 viewBox="0 0 34 66" style="enable-background:new 0 0 34 66;" xml:space="preserve">
<style type="text/css">
	.st0{fill:#9ADAEE;}
	.st1{fill:#A5DEF2;}
	.st2{fill:#B3E2F3;}
	.st3{fill:#F05423;}
	.st4{fill:#F26522;}
	.st5{fill:#656565;}
</style>
<g id="XMLID_21_">
	<circle id="XMLID_38_" class="st0" cx="11.4" cy="54.6" r="11.4"/>
	<rect id="XMLID_37_" x="5.7" y="5.7" class="st0" width="11.4" height="46"/>
	<circle id="XMLID_36_" class="st0" cx="11.4" cy="5.7" r="5.7"/>
	<path id="XMLID_35_" class="st0" d="M17.1,44.7V5.7h0c0-3.1-2.5-5.7-5.7-5.7C8.3,0,5.7,2.5,5.7,5.7h0v39.1c-3.4,2-5.7,5.6-5.7,9.9
		C0,60.9,5.1,66,11.4,66c6.3,0,11.4-5.1,11.4-11.4C22.8,50.4,20.5,46.7,17.1,44.7z"/>
	<path id="XMLID_34_" class="st1" d="M22.8,54.6c0,6.3-5.1,11.4-11.4,11.4V0c3.1,0,5.7,2.5,5.7,5.7h0v39.1
		C20.5,46.7,22.8,50.4,22.8,54.6z"/>
	<path id="XMLID_33_" class="st1" d="M11.4,63.2c-4.7,0-8.6-3.9-8.6-8.6c0-3.1,1.7-5.9,4.3-7.4l1.4-0.8V8.5l0-2.8
		c0-1.6,1.3-2.9,2.9-2.9c1.6,0,2.9,1.3,2.9,2.9v2.8h0v37.9l1.4,0.8c2.7,1.5,4.3,4.4,4.3,7.4C20,59.4,16.1,63.2,11.4,63.2z"/>
	<path id="XMLID_32_" class="st2" d="M20,54.6c0-3.1-1.7-5.9-4.3-7.4l-1.4-0.8V8.5h0V5.7c0-1.6-1.3-2.9-2.9-2.9v60.4
		C16.1,63.2,20,59.4,20,54.6z"/>
	<path id="XMLID_31_" class="st3" d="M8.5,21.1v25.2l-1.4,0.8c-2.7,1.5-4.3,4.4-4.3,7.4c0,4.7,3.9,8.6,8.6,8.6
		c4.7,0,8.6-3.9,8.6-8.6c0-3.1-1.7-5.9-4.3-7.4l-1.4-0.8V21.1H8.5z"/>
	<path id="XMLID_30_" class="st4" d="M20,54.6c0-3.1-1.7-5.9-4.3-7.4l-1.4-0.8V21.1h-2.9v42.1C16.1,63.2,20,59.4,20,54.6z"/>
	<g id="XMLID_22_">
		<g id="XMLID_27_">
			<path id="XMLID_28_" class="st5" d="M24.2,44c-2.8,0-3.9-1.5-4-4.2V28.9h-1.7v-2.6h1.7v-6.1h3.5v6.1h2.6v2.6h-2.6v10.2
				c0,1.2,0.2,2,1.4,2c0.3,0,0.9-0.1,1.2-0.1v2.8C25.5,43.9,25,44,24.2,44z"/>
		</g>
		<g id="XMLID_23_">
			<path id="XMLID_24_" class="st5" d="M29.7,28.3c-1.4,0-2-1-2-2.4v-3.5c0-1.4,0.6-2.4,2-2.4c1.4,0,2,1,2,2.4v3.5
				C31.7,27.3,31.1,28.3,29.7,28.3z M29.7,27.4c0.7,0,0.9-0.8,0.9-1.5v-3.5c0-0.7-0.1-1.5-0.9-1.5s-0.9,0.7-0.9,1.5v3.5
				C28.8,26.6,29,27.4,29.7,27.4z"/>
		</g>
	</g>
</g>
</svg>
